<?xml version="1.0" standalone="no"?>
<!DOCTYPE svg PUBLIC "-//W3C//DTD SVG 20010904//EN"
 "http://www.w3.org/TR/2001/REC-SVG-20010904/DTD/svg10.dtd">
<svg version="1.0" xmlns="http://www.w3.org/2000/svg"
 width="1400.000000pt" height="1488.000000pt" viewBox="0 0 1400.000000 1488.000000"
 preserveAspectRatio="xMidYMid meet">

<g transform="translate(0.000000,1488.000000) scale(0.100000,-0.100000)"
fill="#000000" stroke="none">
<path d="M0 7440 l0 -7440 7000 0 7000 0 0 7440 0 7440 -7000 0 -7000 0 0
-7440z m7120 6808 c-174 -65 -344 -134 -490 -200 -91 -41 -196 -87 -234 -104
-44 -18 -70 -35 -72 -46 -1 -10 1 -18 5 -18 4 0 8 -22 8 -49 1 -46 -2 -51 -46
-89 -91 -78 -161 -151 -161 -167 0 -9 -7 -29 -16 -46 l-15 -30 53 31 c70 41
206 110 215 110 5 0 1 -5 -7 -10 -12 -7 -12 -10 -1 -10 7 0 11 -6 8 -15 -4 -9
7 -22 33 -36 23 -13 39 -29 38 -38 -2 -8 7 -20 20 -27 35 -17 83 -66 94 -94 7
-20 11 -22 18 -10 6 10 10 11 10 3 0 -16 66 -47 85 -39 8 3 15 1 15 -5 0 -6 5
-7 10 -4 6 3 10 1 10 -5 0 -6 5 -8 10 -5 6 3 10 -2 11 -12 0 -16 1 -16 9 2 l9
20 0 -20 c1 -17 3 -17 11 -5 7 11 10 11 10 2 0 -7 5 -10 10 -7 6 3 10 2 10 -4
0 -5 -3 -11 -7 -14 -10 -5 16 3 36 11 10 4 12 1 6 -8 -5 -9 -4 -11 4 -6 6 4
23 10 38 12 15 3 34 11 42 17 9 7 12 7 8 1 -3 -6 0 -11 8 -11 8 0 13 5 12 11
-1 6 9 10 23 10 14 -1 28 3 32 10 4 6 11 12 15 12 4 1 19 5 33 10 14 4 27 7
30 7 3 0 11 7 18 16 8 9 11 10 7 4 -8 -17 10 -17 27 0 21 20 62 15 66 -8 8
-56 36 -145 45 -145 6 0 7 -3 4 -6 -3 -4 7 -25 23 -48 36 -50 45 -113 32 -218
-8 -63 -17 -87 -48 -134 -21 -31 -47 -67 -58 -78 -12 -12 -42 -45 -68 -74 -26
-29 -52 -52 -58 -52 -6 0 -15 -11 -20 -25 -9 -24 -152 -144 -202 -169 l-27
-14 -7 57 c-3 31 -13 71 -20 90 -8 18 -14 42 -14 53 0 34 -81 192 -114 221
-30 27 -31 28 -34 8 -4 -24 -13 -26 -31 -8 -8 8 -7 0 3 -24 14 -34 14 -43 -3
-105 -10 -38 -22 -112 -25 -164 -4 -52 -13 -125 -20 -162 -14 -76 -37 -104
-151 -188 -33 -25 -61 -48 -63 -52 -2 -5 -10 -8 -18 -8 -8 0 -14 -3 -14 -8 0
-4 -15 -13 -32 -21 -18 -8 -40 -20 -48 -26 -29 -24 -188 -103 -195 -97 -3 4
-9 2 -13 -3 -15 -22 -151 -81 -235 -104 l-38 -10 19 32 c119 196 182 318 182
349 0 11 -14 53 -31 94 -22 54 -36 74 -49 74 -36 0 -81 -52 -124 -144 -45 -96
-135 -223 -208 -293 -24 -23 -86 -73 -138 -112 -105 -79 -163 -101 -273 -107
l-68 -3 6 77 c4 42 8 88 10 102 3 14 7 52 10 85 3 33 9 67 12 75 3 8 9 42 13
75 5 33 11 76 14 95 3 19 8 55 11 80 9 71 12 89 41 194 l27 99 -21 16 c-12 9
-27 41 -35 74 l-15 58 40 66 c23 37 47 81 55 98 14 32 34 67 43 75 4 3 44 81
90 173 46 93 88 171 92 173 4 3 8 13 8 22 0 17 165 195 247 267 34 29 54 38
104 45 34 5 65 13 69 17 4 4 11 29 14 54 5 35 3 50 -9 62 -8 9 -15 22 -15 30
0 9 -13 18 -31 22 -29 7 -193 102 -228 132 -9 8 -43 31 -76 53 -33 21 -70 48
-82 59 -12 12 -27 21 -33 21 -5 0 -10 5 -10 10 0 6 -7 10 -15 10 -8 0 -15 4
-15 9 0 11 11 8 150 -31 172 -48 308 -138 376 -248 38 -63 70 -83 88 -58 6 8
21 18 34 22 12 4 22 14 22 22 0 8 9 14 21 14 15 0 19 -5 15 -15 -3 -10 1 -15
12 -15 21 0 44 15 95 64 24 23 59 42 95 52 31 9 59 17 62 17 3 -1 17 8 32 18
40 29 134 69 213 91 38 11 74 23 80 27 5 5 28 11 50 14 23 4 76 18 120 32 43
13 94 27 114 30 20 3 60 12 89 18 30 7 75 13 100 14 l47 2 -55 -21z m-1600
-456 l55 -36 -70 -13 c-104 -20 -120 -22 -183 -28 -60 -5 -152 3 -152 14 0 3
12 20 28 38 27 31 77 50 182 71 50 9 57 7 140 -46z m4983 -194 c18 -12 46 -38
62 -57 17 -19 46 -53 66 -75 19 -23 41 -57 49 -76 7 -19 19 -42 25 -50 6 -8
24 -51 40 -95 15 -44 34 -92 41 -106 30 -59 81 -294 89 -404 4 -46 20 -211 30
-310 11 -99 14 -317 5 -390 -5 -44 -12 -108 -15 -143 -3 -35 -12 -95 -20 -133
-8 -39 -13 -75 -9 -80 3 -5 0 -9 -7 -9 -7 0 -10 -3 -6 -6 3 -3 1 -18 -5 -33
-6 -14 -12 -39 -14 -56 -2 -16 -9 -41 -15 -55 -29 -63 -37 -83 -90 -246 -32
-101 -92 -200 -183 -303 -31 -36 -56 -68 -56 -73 0 -4 -6 -8 -12 -8 -7 0 -24
-16 -37 -35 -13 -19 -30 -35 -37 -35 -8 0 -14 -6 -14 -13 0 -8 -9 -22 -20 -32
-11 -10 -20 -22 -20 -27 0 -8 -151 -158 -215 -214 -16 -14 -58 -51 -92 -82
-116 -106 -154 -137 -206 -165 -28 -16 -59 -37 -68 -48 -9 -10 -20 -19 -25
-19 -5 0 -24 -14 -43 -30 -18 -17 -38 -30 -43 -30 -5 0 -23 -10 -41 -22 -18
-12 -44 -30 -59 -40 -15 -10 -74 -42 -130 -70 -57 -29 -105 -55 -108 -59 -4
-6 -68 -35 -88 -40 -4 -1 -16 -8 -28 -15 -11 -8 -49 -26 -85 -40 -35 -14 -88
-37 -117 -50 -29 -13 -57 -24 -63 -24 -6 0 -25 -6 -42 -13 -18 -8 -61 -21 -97
-30 -36 -10 -72 -19 -81 -21 -70 -18 -114 -31 -179 -51 -70 -22 -157 -42 -212
-49 -12 -1 -30 -5 -38 -8 -35 -14 -114 -23 -280 -33 -69 -4 -150 -9 -180 -12
-154 -11 -398 -1 -530 22 -83 15 -211 58 -238 79 -7 6 -22 19 -33 29 -10 9
-23 17 -27 17 -16 0 -93 85 -99 109 -3 14 -9 31 -13 36 -11 15 -9 140 2 185
l10 38 294 1 c281 1 356 4 489 18 33 3 74 7 90 8 87 8 164 18 200 26 22 5 56
9 76 9 20 0 52 6 71 14 19 8 52 17 74 20 78 10 230 45 286 65 32 12 66 23 75
25 10 1 25 5 33 8 41 15 106 32 118 31 6 0 12 3 12 8 0 5 8 9 18 9 9 0 47 16
84 34 37 19 68 32 71 30 2 -2 17 2 33 11 16 8 34 15 39 15 6 0 17 6 24 13 6 6
15 12 19 12 4 0 24 11 45 23 20 13 43 25 50 26 6 1 27 10 45 19 18 10 37 15
42 12 6 -3 10 -2 10 3 0 5 12 15 28 23 30 16 44 26 73 52 11 10 32 26 48 35
59 36 110 72 116 81 3 6 23 18 43 28 20 9 53 33 72 54 19 20 45 48 57 61 12
12 34 32 48 43 68 52 255 257 255 280 0 4 27 43 60 87 33 43 60 83 60 88 0 6
4 10 8 10 9 0 47 71 44 83 -1 4 5 10 13 13 8 4 15 14 15 24 0 11 4 22 10 25 5
3 19 28 31 55 12 27 27 55 35 61 8 6 11 15 8 20 -2 5 6 32 19 61 13 29 30 73
37 98 8 25 24 67 37 93 13 26 28 67 33 90 5 23 13 60 19 82 10 39 50 305 71
470 42 333 59 618 42 705 -12 59 -24 360 -15 360 3 0 19 -10 36 -22z m1079
-78 c26 -52 47 -103 48 -112 0 -10 4 -18 9 -18 5 0 12 -21 16 -46 4 -26 10
-54 15 -63 20 -41 52 -193 56 -266 1 -27 3 -52 4 -55 1 -3 3 -16 4 -30 9 -76
19 -150 25 -185 8 -44 6 -391 -3 -500 -4 -38 -8 -95 -11 -125 -3 -30 -8 -68
-12 -85 -4 -16 -8 -41 -9 -55 -1 -14 -7 -43 -12 -65 -6 -22 -20 -78 -32 -125
-34 -136 -92 -313 -112 -342 -10 -14 -18 -32 -18 -40 0 -7 -10 -29 -23 -48
-13 -19 -29 -51 -37 -70 -7 -19 -27 -54 -42 -77 -16 -24 -26 -43 -22 -43 4 0
0 -8 -9 -18 -9 -10 -38 -59 -63 -108 -25 -49 -50 -90 -55 -92 -5 -2 -9 -12 -9
-23 0 -10 -4 -19 -8 -19 -5 0 -16 -17 -26 -37 -17 -35 -43 -75 -137 -204 -20
-28 -62 -79 -94 -115 -53 -58 -59 -62 -71 -47 -7 10 -14 27 -14 38 0 11 -8 31
-17 45 -9 13 -17 44 -17 70 -1 30 -5 46 -12 43 -6 -2 -19 17 -28 42 -10 25
-21 45 -25 45 -4 0 -7 10 -8 21 -1 12 -9 29 -17 38 -9 10 -16 23 -16 29 0 6
-12 36 -26 66 -14 30 -26 61 -28 69 -1 8 -7 22 -14 30 -10 11 -9 17 3 27 8 7
15 17 15 22 0 5 23 57 50 114 28 57 50 109 50 114 0 6 4 10 9 10 5 0 14 14 21
31 12 27 80 128 125 184 8 11 23 34 32 50 65 123 110 217 123 255 8 25 25 67
38 93 12 26 34 89 48 140 13 51 34 121 46 157 11 36 22 74 24 85 1 11 10 47
19 79 18 68 51 269 61 371 3 39 8 72 9 75 2 3 6 33 10 65 3 33 8 67 10 75 3 8
7 42 11 75 3 33 7 74 9 90 2 17 6 50 9 75 3 25 8 68 10 95 22 236 35 300 59
293 6 -2 33 -46 59 -98z m-3378 -164 c16 -4 32 -3 35 2 4 6 39 0 86 -15 44
-13 103 -26 130 -29 28 -2 75 -7 105 -9 89 -9 182 -36 230 -68 25 -17 47 -33
50 -36 3 -3 32 -28 65 -55 87 -72 144 -128 151 -149 3 -9 49 -53 102 -96 53
-43 106 -88 116 -100 11 -11 25 -21 33 -21 7 0 13 -4 13 -9 0 -5 25 -35 55
-66 30 -31 55 -61 55 -66 0 -6 6 -17 13 -24 26 -30 35 -42 76 -113 24 -39 47
-72 52 -72 5 0 9 -5 9 -11 0 -6 14 -32 31 -57 60 -88 62 -80 -57 -205 -241
-254 -313 -393 -317 -616 -2 -90 0 -102 22 -131 l23 -32 -31 -61 c-17 -33 -29
-63 -26 -66 3 -3 27 20 53 50 120 139 245 235 366 281 42 16 239 68 257 68 4
0 -12 -60 -36 -132 -24 -73 -47 -160 -50 -193 -7 -59 -34 -127 -55 -140 -6 -4
-8 -14 -6 -23 4 -12 -22 -46 -84 -110 -49 -50 -94 -92 -100 -92 -5 0 -10 -4
-10 -10 0 -5 -5 -10 -11 -10 -6 0 -32 -22 -57 -49 -26 -27 -61 -57 -77 -67
-17 -11 -55 -35 -85 -54 -29 -19 -56 -35 -59 -36 -3 0 -24 -11 -46 -25 -22
-13 -44 -24 -50 -24 -5 -1 -9 -6 -8 -12 1 -6 -15 -19 -35 -29 -20 -11 -55 -30
-77 -44 -22 -14 -53 -32 -70 -40 -16 -8 -37 -19 -45 -25 -8 -6 -33 -17 -55
-23 -43 -14 -143 -56 -187 -79 -15 -7 -29 -13 -30 -13 -2 1 -16 -3 -31 -9 -16
-6 -36 -11 -46 -11 -9 0 -22 -5 -29 -12 -7 -7 -12 -8 -12 -4 0 5 -6 4 -12 -2
-12 -8 -128 -41 -168 -47 -8 -1 -22 -5 -30 -8 -25 -10 -134 -41 -145 -42 -5 0
-15 -3 -20 -7 -15 -9 -64 -17 -210 -34 -27 -3 -55 -10 -60 -14 -6 -5 -24 -9
-40 -8 -17 0 -68 -5 -115 -12 -126 -17 -185 -22 -442 -37 -104 -5 -108 -5
-108 15 0 33 -145 171 -180 172 -8 0 -27 6 -41 13 -17 10 -59 13 -135 12 -143
-4 -164 -9 -164 -46 0 -18 8 -19 101 -19 129 0 208 -29 282 -102 l50 -48 -92
0 c-71 0 -91 3 -91 14 0 27 -24 36 -55 20 -22 -11 -38 -32 -57 -77 -28 -64
-62 -227 -47 -227 5 0 9 -15 9 -32 0 -18 7 -46 15 -62 8 -15 15 -34 15 -41 0
-15 42 -84 51 -85 3 0 28 -20 55 -45 27 -25 56 -45 65 -45 8 0 47 -11 85 -24
43 -15 113 -29 189 -36 65 -6 121 -13 123 -15 3 -3 -16 -13 -40 -24 -25 -11
-49 -24 -52 -30 -13 -20 -91 -33 -199 -32 -276 3 -532 139 -671 356 -21 33
-47 72 -57 87 -11 15 -19 29 -19 32 0 3 -13 27 -28 53 -24 42 -90 191 -97 218
-1 6 -9 26 -17 45 -8 19 -28 68 -43 108 -22 56 -31 69 -38 57 -5 -9 -6 -40 -3
-68 9 -95 84 -341 117 -389 11 -14 19 -31 19 -38 0 -16 100 -170 111 -170 5 0
9 -4 9 -10 0 -18 156 -190 173 -190 4 0 18 -11 31 -25 13 -14 28 -25 33 -25 5
0 17 -8 26 -17 27 -31 123 -75 212 -98 74 -20 130 -26 260 -28 l101 -2 64 -51
c36 -28 80 -59 98 -70 17 -10 32 -22 32 -26 0 -4 7 -8 17 -8 9 0 31 -11 49
-25 18 -14 37 -25 42 -25 6 0 12 -3 14 -7 2 -5 46 -30 98 -57 52 -26 109 -57
125 -67 17 -10 37 -21 45 -25 8 -3 44 -18 80 -34 88 -38 120 -47 225 -65 108
-18 165 -15 227 13 45 19 88 64 96 100 2 9 5 49 7 87 l2 70 54 3 54 3 0 -108
c0 -59 -4 -120 -9 -134 -15 -52 -117 -110 -286 -162 -162 -50 -194 -56 -320
-61 -126 -4 -223 10 -301 46 -67 30 -68 31 -80 82 -20 82 -36 111 -85 155 -46
40 -49 41 -120 41 -40 0 -75 -4 -78 -9 -3 -5 -18 -12 -33 -16 -45 -11 -120
-81 -138 -129 -39 -102 -19 -230 56 -354 17 -30 18 -38 7 -68 -6 -19 -15 -34
-18 -34 -4 0 -17 -21 -29 -47 -12 -27 -27 -57 -34 -68 -6 -11 -20 -39 -32 -62
-12 -23 -27 -48 -33 -55 -11 -14 -125 -238 -154 -304 -10 -22 -20 -52 -24 -67
-6 -25 -10 -28 -33 -22 -14 4 -36 8 -48 10 -31 3 -70 31 -77 53 -5 14 -13 18
-33 14 -18 -3 -24 -1 -19 6 5 8 1 10 -9 6 -8 -4 -22 -1 -30 6 -8 7 -22 10 -30
6 -9 -3 -14 -2 -11 3 3 4 -5 13 -17 19 -47 22 -60 23 -74 2 -20 -28 -35 -26
-23 4 5 15 5 27 -1 33 -7 7 -3 17 13 29 13 11 24 28 25 39 1 11 0 14 -3 8 -8
-18 -25 -16 -18 2 8 19 -22 31 -40 16 -18 -15 -32 4 -17 23 14 17 4 26 -30 26
-15 0 -29 6 -32 13 -3 8 -9 6 -19 -7 -10 -12 -20 -16 -28 -11 -9 6 -11 4 -5
-5 5 -8 3 -11 -6 -8 -8 3 -13 16 -12 29 l3 24 -15 -25 c-9 -16 -15 -20 -15
-10 -1 10 -4 9 -10 -5 -5 -11 -9 -14 -9 -6 -1 10 -4 11 -15 2 -10 -8 -27 -8
-63 -1 -35 8 -69 8 -114 1 -90 -15 -179 -14 -179 2 0 8 -3 8 -9 -2 -7 -12 -13
-12 -24 -3 -7 7 -17 9 -20 6 -6 -6 -13 15 -21 70 -4 24 -35 66 -49 66 -7 0
-26 -101 -42 -220 -17 -130 -44 -250 -55 -250 -15 0 -126 135 -152 185 -54
101 -99 221 -114 299 -26 135 -47 167 -72 111 -8 -17 -20 -25 -37 -25 l-25 0
0 -103 c0 -76 -4 -108 -15 -125 -14 -19 -14 -25 1 -54 9 -18 23 -41 32 -50 44
-51 -73 19 -124 74 -53 57 -75 126 -75 236 0 106 18 179 68 273 15 30 29 57
31 62 2 4 -4 7 -13 7 -33 0 -82 -67 -114 -155 -56 -155 -44 -340 27 -427 12
-15 9 -22 -28 -62 -23 -25 -68 -58 -99 -73 -52 -26 -65 -28 -181 -28 -188 0
-249 26 -506 218 -131 97 -202 146 -336 230 -32 20 -58 44 -58 52 0 28 28 83
47 93 10 6 25 22 32 36 11 19 20 24 36 20 44 -11 43 63 -1 87 -14 7 -39 12
-57 10 -18 -1 -50 -3 -72 -4 l-39 -2 -1 40 c-1 22 2 53 7 69 4 16 10 46 13 67
3 21 13 64 21 96 9 32 18 67 20 78 7 38 66 200 79 215 7 8 18 33 25 55 7 22
16 42 20 45 3 3 14 25 24 49 22 57 95 161 112 161 8 0 37 -16 65 -36 62 -45
196 -128 268 -166 30 -16 68 -39 85 -51 30 -21 65 -41 138 -78 135 -69 310
-62 449 16 14 8 28 12 31 9 3 -2 11 2 18 11 7 8 18 15 26 15 32 0 290 241 316
295 31 67 47 89 51 75 16 -47 35 -207 43 -372 3 -62 8 -120 11 -128 2 -8 7
-35 9 -60 3 -25 7 -56 10 -70 9 -39 44 -110 54 -110 6 0 10 -6 10 -14 0 -19
60 -46 102 -46 19 0 48 7 64 15 49 24 163 145 164 173 0 13 29 17 31 5 4 -44
62 -201 89 -243 5 -8 19 -33 31 -55 20 -36 47 -76 110 -157 11 -15 40 -48 65
-73 24 -26 44 -49 44 -53 0 -4 21 -20 45 -37 25 -16 45 -33 45 -36 0 -4 13
-12 29 -19 16 -6 32 -18 35 -26 3 -8 12 -14 21 -14 8 0 15 -3 15 -7 0 -12 95
-63 117 -63 11 0 29 9 41 20 26 25 28 64 7 134 -21 70 -20 71 28 33 58 -46 84
-39 119 33 36 77 54 161 52 252 -1 76 -27 129 -74 153 l-28 15 13 -28 c16 -32
26 -232 14 -271 -5 -14 -13 -47 -20 -73 -6 -27 -15 -48 -18 -48 -33 0 -110
105 -164 221 l-34 74 -7 -90 c-5 -75 -2 -107 17 -191 13 -56 21 -106 19 -113
-4 -12 -58 17 -93 49 -9 8 -31 26 -50 40 -106 80 -301 336 -323 425 -4 16 -11
32 -14 35 -20 15 -67 151 -92 265 -6 27 -16 55 -22 62 -15 18 -38 16 -44 -4
-14 -40 -70 -152 -108 -214 -43 -70 -78 -99 -118 -99 -24 0 -58 31 -58 53 0 7
-4 17 -9 22 -6 6 -13 33 -16 60 -3 28 -10 64 -15 80 -4 17 -8 37 -8 45 2 97
-42 378 -72 466 l-29 82 24 58 c46 114 56 200 51 403 -3 102 -8 211 -12 241
-19 170 -30 344 -26 410 12 159 -8 274 -68 393 -52 105 -65 121 -86 113 -20
-8 -14 -35 27 -122 16 -35 29 -70 29 -78 0 -8 4 -17 9 -20 8 -6 28 -100 30
-146 1 -41 -28 -132 -59 -180 -16 -25 -43 -75 -61 -112 -41 -83 -60 -87 -113
-25 -20 23 -36 47 -36 53 0 6 -7 17 -15 24 -19 16 -99 183 -115 240 -6 25 -17
56 -23 70 -9 21 -14 166 -17 453 0 26 -4 47 -10 47 -20 0 -60 -99 -68 -170
-11 -93 -5 -238 13 -318 9 -35 13 -68 9 -73 -3 -5 -1 -9 5 -9 5 0 12 -15 16
-32 6 -34 21 -72 36 -98 9 -14 43 -79 89 -170 22 -42 109 -142 119 -136 4 3
13 1 21 -4 12 -7 11 -18 -4 -72 -23 -85 -118 -259 -162 -300 -11 -9 -35 -33
-54 -53 -19 -19 -38 -35 -42 -35 -10 0 -9 -11 -23 205 -11 151 -12 161 -25
235 -18 104 -30 140 -45 140 -21 0 -73 -57 -101 -111 -13 -27 -28 -49 -32 -49
-4 0 -14 10 -22 21 -8 12 -22 29 -31 38 -30 31 -59 79 -59 99 0 11 -4 22 -9
24 -19 7 -32 343 -17 458 13 108 30 191 38 196 4 3 8 14 8 25 0 10 4 27 10 37
5 9 20 42 33 72 14 30 40 76 59 101 74 96 101 159 68 159 -4 0 -29 -18 -56
-40 -53 -44 -66 -45 -37 -3 11 15 25 43 32 61 8 17 17 32 21 32 4 0 13 18 20
40 18 55 40 72 41 34 1 -16 1 -36 0 -45 -3 -30 48 -69 93 -71 119 -5 236 23
350 86 34 19 87 48 119 65 32 17 64 36 70 41 57 47 92 70 95 60 2 -6 -3 -19
-12 -29 -9 -10 -21 -32 -25 -49 -8 -26 -5 -34 15 -53 26 -25 14 -26 174 23 41
12 77 23 80 24 3 0 25 10 50 21 25 12 70 32 101 46 30 14 100 52 155 84 54 33
124 72 154 88 30 16 62 36 71 45 33 31 60 50 69 50 6 0 10 7 10 15 0 8 4 15 9
15 28 0 125 123 153 195 9 22 20 51 26 65 l11 25 0 -26 c1 -38 21 -92 39 -106
28 -23 77 -15 125 20 82 59 152 114 190 151 36 34 43 36 102 36 77 0 216 -19
229 -31 6 -5 17 -9 26 -9 35 0 92 -63 133 -148 42 -90 55 -93 56 -14 3 104
-52 181 -170 239 -70 36 -99 43 -174 47 -59 3 -60 7 -5 81 22 30 40 57 40 61
0 4 15 27 33 53 44 63 93 165 88 185 -1 5 4 4 12 -2 8 -7 18 -8 22 -4 5 4 5 2
2 -4 -4 -7 0 -14 8 -18 10 -3 15 -19 15 -46 0 -48 53 -138 94 -159 78 -42 243
72 326 227 14 26 28 49 33 50 4 2 5 8 2 13 -3 4 1 19 9 31 8 13 20 47 26 75
l12 52 27 -20 c16 -11 43 -21 61 -22 28 -2 35 3 51 33 10 19 20 46 23 60 2 14
5 27 6 30 1 3 2 14 1 25 -1 12 1 16 6 9 4 -6 21 -14 37 -18z m-408 -331 c-49
-64 -129 -135 -152 -135 -25 0 -50 34 -49 70 0 34 0 34 95 66 52 18 103 33
114 33 16 1 15 -3 -8 -34z m-2993 -666 l6 -96 -59 -27 c-33 -15 -83 -34 -111
-41 -68 -18 -294 -31 -303 -17 -3 6 35 30 89 57 52 25 97 50 100 54 2 5 28 21
57 36 29 15 60 32 68 39 8 6 31 20 50 30 19 11 48 30 64 43 16 13 30 23 31 21
1 -2 5 -46 8 -99z m10 -311 c53 -218 51 -203 35 -220 -21 -21 -78 -106 -78
-114 0 -4 -11 -22 -25 -40 -14 -18 -25 -35 -25 -37 0 -3 -28 -52 -62 -109 -35
-57 -72 -120 -83 -141 -11 -21 -36 -57 -55 -81 -19 -23 -48 -60 -65 -81 -35
-45 -143 -153 -274 -275 -51 -47 -109 -101 -130 -120 -106 -99 -121 -110 -121
-95 0 18 81 182 171 348 35 65 68 127 74 138 5 10 13 19 17 19 5 0 8 6 8 13 0
6 13 26 30 43 16 18 26 34 23 37 -3 4 8 23 24 44 17 21 40 57 52 80 11 23 31
51 43 63 12 11 18 20 12 20 -5 0 -4 4 2 8 6 4 44 54 83 112 99 144 120 173
134 185 15 13 67 82 67 90 0 3 13 20 29 38 16 17 44 49 61 69 34 41 44 42 53
6z m-167 -1470 c4 -14 14 -35 23 -45 9 -10 23 -32 30 -50 19 -46 122 -149 157
-156 36 -7 45 0 74 62 13 28 27 48 32 45 4 -3 7 -8 4 -12 -2 -4 0 -34 5 -67 5
-33 11 -125 15 -205 9 -193 25 -225 103 -202 36 11 141 105 188 168 l21 29 -5
-76 c-5 -67 -3 -79 14 -96 24 -24 63 -21 89 8 25 28 39 23 60 -18 16 -31 19
-61 19 -163 l0 -125 -69 -102 c-37 -56 -98 -130 -135 -163 -89 -83 -89 -83
-141 -111 -25 -13 -52 -29 -60 -35 -8 -7 -48 -24 -89 -38 -173 -60 -316 -25
-533 131 -44 32 -83 64 -85 71 -3 6 -9 12 -15 12 -5 0 -34 16 -64 35 -30 19
-59 35 -64 35 -6 0 -10 3 -10 8 0 4 -18 18 -40 32 -22 13 -40 28 -40 32 0 4
-5 8 -11 8 -14 0 -43 26 -117 104 -32 33 -65 68 -74 78 -10 10 -18 21 -18 24
0 3 -15 24 -33 47 -51 65 -57 84 -59 197 l-3 105 60 -5 c120 -10 279 -3 339
14 121 35 175 95 261 291 26 61 68 151 93 200 l45 90 14 -65 c8 -36 16 -77 19
-92z m5875 -485 c26 -70 45 -131 41 -134 -4 -4 -54 -21 -111 -38 -165 -51
-316 -130 -405 -213 -11 -10 -23 -18 -27 -18 -4 0 -33 -30 -63 -67 -70 -85
-75 -117 -9 -56 26 23 54 43 63 43 8 0 44 9 78 20 75 23 102 26 84 8 -7 -7
-12 -23 -12 -37 0 -23 1 -23 18 -8 10 10 24 17 30 17 7 0 12 4 12 9 0 5 8 11
18 14 9 3 62 24 117 47 113 48 240 90 271 90 74 0 117 -350 95 -775 -6 -122
-20 -307 -30 -411 -13 -134 -17 -233 -14 -339 3 -82 6 -151 7 -152 0 0 23 -4
51 -7 27 -3 51 -10 53 -16 2 -5 12 -10 22 -10 9 0 23 -7 30 -15 7 -8 19 -15
28 -15 8 0 20 -7 26 -15 12 -16 120 -40 136 -30 6 4 9 3 8 -2 -2 -4 1 -9 5
-10 11 -3 38 -31 37 -38 -1 -4 7 -14 18 -23 10 -9 17 -23 14 -31 -2 -8 0 -11
5 -8 14 9 5 -139 -12 -203 -4 -14 -9 -38 -11 -55 -7 -43 -24 -113 -41 -165
-17 -51 -17 -52 -39 -140 -18 -75 -22 -80 -92 -132 -79 -59 -366 -189 -491
-224 -50 -14 -59 -19 -42 -25 18 -7 65 -2 161 17 79 16 288 107 363 158 21 15
42 24 47 21 5 -3 0 -26 -10 -51 -11 -25 -20 -53 -20 -63 0 -9 -4 -21 -9 -26
-9 -9 -37 -79 -46 -115 -3 -13 -20 -56 -44 -115 -33 -77 -127 -265 -133 -265
-5 0 -8 -9 -8 -19 0 -11 -5 -23 -10 -26 -6 -4 -19 -23 -31 -43 -55 -101 -88
-156 -126 -214 -24 -35 -53 -78 -65 -97 -21 -31 -110 -124 -178 -185 -14 -12
-46 -32 -72 -45 -27 -12 -48 -27 -48 -32 0 -5 -7 -9 -15 -9 -9 0 -27 -7 -41
-17 -96 -62 -341 -177 -424 -198 -14 -3 -34 -10 -45 -15 -37 -17 -150 -42
-205 -47 -103 -9 -405 -10 -477 -2 -40 4 -101 9 -135 10 -35 1 -79 6 -100 11
-49 11 -135 20 -180 19 -21 -1 -38 2 -38 7 0 4 -21 9 -47 10 -27 0 -60 2 -75
2 -16 1 -28 4 -28 8 0 4 -17 7 -37 8 -47 0 -144 12 -150 18 -2 2 -6 75 -8 162
-4 144 4 307 19 359 7 24 90 261 101 290 l8 20 -23 -20 c-19 -17 -46 -53 -82
-109 -4 -6 -14 -29 -24 -51 -9 -22 -20 -49 -24 -60 -16 -38 -24 -68 -38 -140
-10 -54 -6 -317 5 -387 11 -63 8 -74 -15 -56 -8 7 -29 11 -48 9 l-34 -3 0 55
c0 62 -19 157 -31 157 -5 0 -16 -14 -24 -31 -12 -23 -15 -47 -10 -95 l5 -65
-44 5 c-24 3 -73 12 -109 20 -37 7 -69 11 -72 8 -3 -3 -5 -1 -5 5 0 5 -6 10
-12 11 -58 5 -121 15 -163 27 -27 8 -66 17 -85 19 -19 3 -53 10 -75 16 -22 5
-65 16 -95 24 -79 20 -117 36 -185 78 -33 21 -72 43 -87 49 -16 6 -28 15 -28
20 0 5 -5 9 -11 9 -12 0 -92 60 -97 72 -2 5 -7 6 -12 3 -5 -3 -11 4 -15 15 -3
11 -10 20 -15 20 -4 0 -17 15 -29 33 -11 17 -30 45 -41 62 -10 16 -17 31 -15
33 2 3 -2 11 -10 19 -8 8 -15 23 -15 34 0 10 -9 42 -20 71 -17 45 -39 225 -33
268 2 8 3 53 3 100 1 47 7 117 15 155 7 39 16 95 20 125 10 88 16 122 27 165
6 22 12 52 15 68 2 15 11 39 19 55 7 15 14 38 14 52 0 14 14 63 31 110 16 47
31 90 33 95 2 6 6 17 9 25 3 8 13 40 23 70 9 30 20 60 24 65 4 6 15 35 26 65
10 30 23 62 30 70 18 24 54 111 49 120 -3 4 2 13 10 20 8 7 15 16 15 21 0 10
66 158 89 199 23 42 61 126 61 136 0 6 10 22 23 36 12 14 30 39 39 57 19 35
14 58 -38 160 -15 30 -29 66 -30 80 -2 14 -5 49 -8 76 -7 66 7 116 41 145 28
24 45 29 120 33 49 2 61 -6 39 -28 -9 -9 -16 -22 -16 -29 0 -7 -9 -21 -20 -31
-30 -27 -27 -126 9 -245 27 -91 30 -96 76 -127 40 -28 57 -33 109 -34 181 -2
368 -51 456 -119 36 -27 21 -33 -46 -15 -114 30 -176 17 -254 -54 -49 -44 -81
-93 -121 -186 -22 -53 -48 -139 -43 -146 3 -5 0 -26 -6 -47 -12 -45 -20 -172
-11 -172 3 0 7 -19 9 -42 1 -23 7 -47 13 -54 10 -12 -7 -86 -47 -205 -8 -26
-16 -56 -17 -68 -1 -12 -16 -38 -34 -56 -18 -19 -33 -38 -33 -42 0 -4 -11 -18
-23 -29 -29 -28 -123 -215 -119 -236 1 -5 -3 -8 -8 -8 -6 0 -10 -11 -10 -24 0
-13 -6 -39 -14 -57 -33 -79 -25 -276 14 -357 24 -50 38 -50 21 -1 -14 41 2
224 28 318 22 80 66 176 93 203 10 10 23 30 28 43 10 26 34 33 46 14 4 -7 21
-9 47 -5 33 6 38 4 29 -7 -11 -13 -39 -123 -49 -192 -4 -25 1 -21 26 24 37 65
108 161 120 161 15 0 113 -125 142 -181 15 -31 34 -59 41 -61 6 -2 42 8 78 23
36 15 103 37 150 49 47 11 103 25 125 31 24 6 59 28 85 52 25 23 84 75 131
115 l86 72 117 0 c115 0 249 21 261 41 4 5 15 9 26 9 43 0 124 58 223 160 109
113 155 173 182 239 9 22 19 41 23 41 4 0 34 -28 65 -62 124 -133 319 -237
561 -298 75 -19 330 -25 390 -9 16 4 50 11 74 14 46 7 91 21 91 30 0 3 -26 4
-57 2 -32 -2 -89 -1 -128 4 -38 4 -122 10 -185 13 -106 6 -257 35 -332 65
-139 54 -258 128 -350 216 -111 107 -109 105 -96 147 l11 35 66 -64 c106 -104
268 -172 406 -172 l60 0 -55 20 c-30 12 -72 28 -93 35 -35 13 -144 65 -209
100 -30 16 -117 101 -155 151 -22 29 -24 36 -14 66 18 54 22 422 6 500 -7 36
-11 75 -8 86 3 13 1 21 -6 21 -7 0 -9 5 -6 10 4 6 0 34 -8 63 -8 28 -18 72
-21 96 -4 24 -10 49 -14 55 -3 6 -16 49 -28 96 -12 47 -30 105 -41 130 -11 25
-28 64 -38 88 -10 23 -23 42 -28 42 -6 0 -8 3 -4 6 7 7 -60 125 -82 142 -14
11 -14 14 -1 22 11 7 -5 28 -76 97 -50 48 -96 98 -102 109 -11 21 -8 23 79 43
357 85 726 236 1064 435 77 46 175 102 217 126 42 24 108 66 145 95 37 28 72
48 77 44 5 -4 30 -65 57 -136z m-3100 -721 c38 -30 110 -68 154 -81 22 -7 49
-16 60 -21 76 -35 218 -74 303 -85 91 -12 322 -184 322 -240 0 -7 -127 1 -185
10 -70 12 -161 38 -175 50 -8 7 -30 16 -47 20 -18 3 -33 11 -33 15 0 5 -16 12
-35 16 -19 3 -39 12 -46 20 -6 8 -17 14 -24 14 -8 0 -15 3 -17 8 -3 8 -84 62
-93 62 -3 0 -29 15 -58 33 -29 18 -65 39 -82 47 -35 17 -99 62 -103 73 -2 4
-9 7 -15 7 -7 0 -23 9 -35 19 l-24 18 34 16 c43 22 70 21 99 -1z m-3641 -1132
c35 -7 87 -31 154 -71 170 -104 229 -153 338 -281 33 -40 37 -48 21 -48 -10 0
-36 -18 -57 -39 l-39 -40 6 -103 c4 -57 9 -120 12 -140 3 -21 7 -53 10 -70 6
-46 30 -166 55 -283 12 -55 26 -118 30 -140 5 -22 18 -78 30 -125 11 -47 23
-96 26 -108 3 -13 20 -81 39 -150 18 -70 37 -147 40 -172 4 -25 11 -49 15 -55
4 -5 13 -44 20 -85 14 -79 16 -93 26 -178 5 -41 12 -56 28 -64 32 -15 58 -55
51 -79 -15 -45 -134 -208 -215 -294 -47 -49 -100 -109 -118 -132 -34 -43 -73
-65 -80 -44 -2 6 -8 11 -13 11 -6 0 -46 36 -91 80 -44 44 -84 80 -87 81 -6 0
-55 58 -119 138 -15 19 -44 55 -66 80 -21 24 -50 63 -65 85 -14 23 -32 47 -38
54 -7 7 -13 17 -13 22 0 5 -6 15 -13 22 -35 38 -102 154 -191 333 -117 238
-114 231 -121 275 -3 19 -10 39 -15 45 -4 5 -11 28 -15 50 -4 22 -18 82 -31
133 -23 90 -36 164 -50 287 -11 105 -5 365 11 450 9 44 17 89 19 100 14 90 77
224 142 302 11 12 32 39 48 59 35 42 97 84 125 84 11 0 23 5 26 10 8 13 97 13
165 0z m4245 0 c3 -5 1 -10 -4 -10 -6 0 -11 5 -11 10 0 6 2 10 4 10 3 0 8 -4
11 -10z m3574 -247 c8 -27 17 -52 20 -58 3 -5 6 -12 7 -15 0 -3 5 -16 11 -30
34 -77 89 -312 93 -395 2 -22 3 -96 4 -165 1 -107 -1 -124 -14 -121 -105 27
-124 26 -99 -6 12 -16 12 -17 -2 -6 -21 17 -59 95 -75 156 -18 68 -18 234 1
372 8 61 18 156 21 213 4 56 10 102 13 102 4 0 13 -21 20 -47z m-3902 -55 c-3
-29 -16 -86 -29 -127 l-23 -75 -19 28 c-16 26 -17 36 -6 108 13 94 26 118 59
118 23 0 24 -2 18 -52z m-1188 -64 c14 -12 -19 -1 -35 12 -18 14 -18 14 6 3
14 -6 27 -13 29 -15z m-463 -61 c8 -21 20 -48 25 -59 13 -26 -8 -55 -63 -86
-21 -12 -38 -25 -38 -29 0 -4 -9 -10 -19 -14 -28 -9 -200 -179 -256 -253 -26
-35 -54 -66 -61 -69 -8 -3 -14 -10 -14 -15 0 -6 -11 -23 -24 -39 -24 -28 -24
-28 -29 -6 -3 12 -9 67 -12 122 -6 87 -10 132 -14 183 -1 7 -16 20 -33 27 -18
8 -44 22 -58 30 l-25 15 29 -6 c16 -4 40 -13 53 -19 42 -22 177 -19 256 6 39
12 77 28 84 35 7 6 28 22 47 33 25 16 45 43 73 101 21 44 44 79 51 80 7 0 20
-17 28 -37z m-2841 -60 c-5 -21 -9 -51 -11 -68 -1 -16 -8 -61 -14 -100 -6 -39
-10 -145 -8 -242 2 -106 -1 -176 -7 -181 -5 -5 -45 -28 -88 -51 -62 -33 -88
-41 -129 -41 -64 0 -88 19 -88 69 0 34 27 122 43 137 4 4 7 14 7 21 0 8 9 33
20 55 11 23 20 46 20 51 0 9 102 183 120 204 5 7 10 14 10 17 0 18 110 164
124 165 4 1 5 -16 1 -36z m3430 -33 c65 -17 121 -32 125 -35 9 -6 -15 -107
-39 -160 -10 -22 -24 -67 -31 -100 -7 -33 -17 -64 -20 -70 -8 -11 -43 -158
-45 -190 -1 -11 -10 -63 -19 -115 -10 -52 -19 -108 -22 -125 -2 -16 -8 -59
-13 -95 -9 -61 -6 -370 4 -435 2 -16 6 -42 8 -58 2 -15 7 -30 10 -34 4 -3 7
-13 7 -22 0 -9 6 -27 13 -42 8 -14 21 -47 30 -73 32 -93 173 -250 272 -303 85
-45 121 -63 128 -63 5 0 21 -9 36 -19 24 -17 110 -45 167 -54 10 -1 24 -6 30
-9 10 -7 22 -10 92 -23 15 -3 43 -10 62 -15 19 -5 40 -10 45 -11 6 -2 37 -9
70 -16 33 -8 67 -16 75 -17 8 -2 22 -6 30 -9 8 -3 33 -8 55 -11 42 -6 64 -10
112 -20 15 -3 44 -8 63 -11 19 -3 42 -8 50 -10 13 -4 66 -12 125 -21 11 -1 20
-3 20 -4 0 -2 36 -10 75 -16 19 -2 52 -9 72 -15 21 -5 61 -12 90 -15 29 -3 56
-8 59 -10 4 -2 40 -6 80 -9 41 -3 97 -10 124 -15 72 -13 156 -21 268 -26 54
-2 102 -6 105 -8 4 -2 90 -4 192 -5 251 -3 392 20 575 91 184 72 246 95 275
103 90 25 398 194 426 233 7 10 25 32 41 49 106 115 145 166 189 249 20 38 42
74 50 80 7 5 21 30 30 55 10 24 21 46 24 49 4 3 9 13 13 23 3 9 12 17 18 17 8
0 10 -63 6 -242 -4 -134 -9 -259 -12 -278 l-5 -35 14 40 c8 22 40 121 71 219
37 115 60 175 65 165 4 -7 13 -37 20 -66 13 -56 65 -151 107 -195 19 -20 23
-31 16 -40 -6 -7 -13 -31 -17 -53 -4 -22 -14 -56 -23 -75 -36 -81 -108 -217
-150 -283 -14 -23 -25 -43 -24 -45 1 -1 -4 -9 -11 -16 -7 -8 -22 -26 -32 -40
-11 -15 -51 -60 -89 -99 -69 -72 -69 -72 -63 -37 13 74 45 324 42 327 -3 3
-39 -53 -71 -112 -6 -11 -22 -38 -36 -60 -14 -22 -38 -62 -54 -90 -60 -109
-81 -144 -149 -245 -76 -111 -189 -253 -290 -361 -33 -36 -109 -122 -168 -191
-99 -116 -243 -256 -350 -341 -9 -6 -21 -29 -28 -50 -12 -38 -44 -65 -130
-110 -19 -10 -62 -34 -95 -53 -113 -65 -332 -170 -401 -192 -38 -13 -82 -29
-99 -36 -28 -13 -185 -61 -230 -71 -11 -2 -40 -8 -65 -14 -113 -24 -324 -50
-450 -56 -58 -3 -139 -8 -180 -10 -41 -3 -141 -7 -223 -11 -169 -6 -173 -4
-137 70 23 48 111 136 164 163 17 9 54 32 81 52 117 85 166 108 242 114 64 5
109 20 168 55 11 7 62 29 114 51 l93 38 -108 7 c-228 14 -459 78 -569 156 -5
4 -39 18 -75 32 -36 15 -96 40 -135 58 -38 17 -81 36 -95 42 -69 28 -89 37
-140 60 -64 29 -110 49 -160 68 -19 8 -37 17 -40 20 -3 3 -32 19 -65 35 -33
17 -61 33 -63 38 -2 4 -10 7 -18 7 -8 0 -14 3 -14 8 0 4 -26 21 -58 37 -31 17
-59 33 -62 36 -3 4 -16 10 -30 14 -21 7 -74 39 -90 55 -3 3 -25 16 -50 29 -45
24 -203 127 -250 162 -14 11 -35 24 -47 29 -13 5 -23 14 -23 20 0 5 -4 10 -10
10 -5 0 -33 17 -62 38 -62 45 -112 76 -153 95 -16 8 -45 28 -64 46 -18 17 -43
34 -56 37 -12 3 -36 19 -54 35 -18 16 -52 40 -76 55 -25 14 -45 29 -45 33 0 4
-16 13 -35 20 -19 7 -35 16 -35 21 0 5 -9 12 -20 15 -26 8 -26 25 0 25 27 0
96 44 110 69 56 105 -24 291 -195 452 -5 5 -48 38 -95 74 -47 35 -97 73 -113
85 l-28 22 7 101 c4 56 6 112 5 124 -2 39 18 36 92 -14 86 -58 101 -66 192
-93 90 -28 257 -38 322 -20 92 25 121 60 138 160 25 148 -61 310 -271 509 -43
40 -93 80 -111 87 -18 8 -33 19 -33 24 0 5 -11 12 -25 16 -30 7 -32 25 -5 49
11 10 20 22 20 27 0 11 100 158 107 158 12 0 83 -44 83 -52 0 -4 7 -8 15 -8 8
0 23 -4 33 -10 170 -95 404 -138 509 -95 46 19 96 73 110 118 35 115 -57 261
-217 345 -77 40 -74 62 13 87 34 9 67 19 72 20 31 10 97 2 200 -25z m-358
-126 c133 -61 201 -129 211 -210 5 -45 -11 -106 -32 -123 -27 -23 -117 -38
-179 -29 -75 9 -218 46 -231 59 -6 5 -18 9 -27 9 -10 0 -19 4 -21 9 -1 5 -31
22 -65 40 -34 17 -64 35 -68 40 -6 11 58 74 126 123 24 17 55 42 69 55 14 13
32 23 41 23 8 0 26 11 39 25 27 29 30 28 137 -21z m2792 -46 c-13 -18 -39 -49
-59 -68 -20 -20 -39 -43 -43 -52 -3 -9 -19 -25 -34 -34 -15 -10 -32 -22 -38
-28 -21 -23 -175 -75 -224 -76 -8 0 0 11 19 25 19 14 42 25 52 25 10 0 23 9
30 21 12 18 138 114 253 191 56 37 72 36 44 -4z m-5866 -531 c23 -96 22 -104
-10 -112 -22 -5 -83 -54 -124 -100 -75 -83 -108 -140 -115 -197 -22 -207 -15
-268 39 -340 35 -45 107 -80 195 -94 80 -13 215 -3 284 22 47 16 49 17 45 6
-2 -6 24 -48 162 -256 18 -28 37 -53 40 -56 3 -3 26 -32 51 -65 42 -56 263
-278 340 -341 19 -16 43 -36 53 -44 10 -8 28 -23 39 -32 12 -10 25 -18 30 -18
9 0 13 -2 69 -50 20 -16 40 -30 43 -30 3 0 36 -18 72 -40 36 -22 68 -40 71
-40 3 0 19 -6 36 -14 113 -52 218 -86 265 -86 39 0 40 -6 5 -36 -19 -16 -41
-24 -68 -25 -165 -2 -255 -8 -273 -18 -12 -6 -25 -10 -29 -9 -4 1 -34 -6 -65
-16 -31 -9 -67 -18 -80 -20 -13 -1 -30 -5 -38 -9 -8 -3 -42 -15 -75 -27 -33
-12 -68 -29 -77 -37 -10 -9 -18 -13 -18 -9 0 8 -88 -39 -111 -60 -8 -8 -21
-14 -27 -14 -7 0 -12 -3 -12 -8 0 -7 -69 -45 -102 -56 -10 -3 -20 -1 -23 5 -4
5 -11 6 -17 3 -34 -21 -206 17 -306 68 -35 18 -79 50 -98 71 l-33 40 -12 -29
c-14 -33 -20 -174 -7 -174 4 0 11 -12 14 -27 4 -16 10 -33 15 -38 4 -6 10 -22
13 -35 3 -14 8 -35 12 -47 4 -14 2 -23 -5 -23 -18 0 -118 47 -125 59 -4 6 -14
11 -22 11 -18 0 -150 107 -223 181 -45 45 -62 73 -85 135 -24 66 -27 84 -19
119 10 43 -3 105 -23 112 -6 2 -25 -22 -44 -54 -55 -89 -140 -163 -190 -163
-20 0 -20 2 -6 28 39 71 48 130 41 250 -3 64 -8 135 -11 157 -18 163 -24 650
-11 829 10 133 52 400 72 455 8 24 15 55 15 69 0 27 19 101 31 117 4 6 10 27
14 48 4 20 11 40 16 43 5 3 9 17 10 32 0 15 3 21 6 15 2 -7 11 -13 19 -13 8 0
14 -4 14 -9 0 -16 63 -18 145 -6 59 8 93 20 130 43 28 17 52 32 55 32 3 0 13
-33 23 -73z m2447 12 c0 -5 4 -9 9 -9 14 0 161 -111 161 -121 0 -5 5 -9 12 -9
13 0 102 -90 142 -143 78 -104 111 -229 80 -306 -13 -33 -23 -42 -62 -55 -52
-18 -110 -20 -197 -7 -33 6 -78 11 -100 12 -22 2 -47 6 -55 10 -8 4 -35 15
-60 24 -40 15 -123 69 -159 103 -11 11 -11 24 -2 72 17 85 47 174 86 255 18
39 41 87 50 108 9 20 20 37 25 37 5 0 12 11 16 23 4 19 11 23 30 19 13 -2 24
-8 24 -13z m5988 -122 c-5 -27 64 -280 82 -297 13 -13 50 -90 50 -104 0 -15
-3 -15 -19 -4 -37 26 -102 114 -136 185 -30 60 -35 78 -30 115 9 59 35 129 46
122 5 -3 9 -11 7 -17z m-8388 -84 c6 -21 14 -45 16 -53 3 -8 5 -15 4 -15 -1 0
10 -26 24 -58 15 -32 26 -64 26 -73 0 -18 19 -62 102 -232 33 -68 58 -125 55
-128 -2 -3 -15 -7 -28 -9 -13 -3 -37 -8 -53 -11 -40 -9 -164 -3 -231 11 -85
17 -128 55 -145 130 -6 27 -9 65 -6 85 4 19 8 53 11 75 4 33 11 71 14 83 1 1
1 4 0 8 -2 17 174 224 191 224 5 0 14 -17 20 -37z m7710 -140 c0 -39 -6 -55
-41 -99 -22 -29 -48 -58 -57 -65 -14 -11 -15 -11 -4 1 6 8 12 22 12 32 0 22
72 178 82 178 5 0 8 -21 8 -47z m-5450 -641 c109 -90 228 -240 237 -299 18
-121 18 -122 -18 -137 -51 -21 -91 -25 -145 -14 -27 5 -59 10 -72 10 -19 0
-55 38 -36 38 3 0 2 6 -4 13 -6 6 -10 14 -10 17 0 9 -14 65 -19 80 -17 44 -51
210 -57 279 -3 35 -8 66 -10 69 -3 2 -1 13 5 24 9 18 12 17 47 -12 20 -18 57
-48 82 -68z m-3146 -460 c4 -1 2 -12 -6 -24 -36 -55 -42 -143 -12 -172 19 -20
29 -20 48 0 26 25 163 36 176 14 7 -12 13 -95 12 -152 -1 -14 -15 -85 -31
-156 -26 -107 -29 -135 -20 -161 11 -32 23 -36 83 -32 36 3 167 62 185 84 19
24 41 21 41 -5 0 -36 47 -120 99 -176 27 -30 52 -59 54 -66 3 -8 -14 -19 -47
-29 -76 -24 -98 -52 -102 -129 -4 -64 29 -198 47 -198 5 0 9 -5 9 -12 0 -27
205 -218 235 -218 3 0 23 -12 45 -26 43 -29 43 -37 -3 -111 -13 -21 -34 -68
-46 -105 -12 -36 -29 -72 -37 -78 -8 -7 -14 -21 -14 -31 0 -30 -16 -30 -49 -1
-45 39 -149 90 -226 111 -54 15 -103 14 -169 -3 -74 -20 -90 -29 -117 -73 -19
-32 -23 -52 -23 -135 -1 -65 3 -101 12 -109 6 -7 12 -22 12 -33 0 -23 41 -108
81 -171 60 -93 195 -207 310 -264 l67 -32 12 -82 c7 -45 14 -93 16 -107 7 -56
15 -90 23 -90 4 0 8 -14 9 -31 0 -17 5 -36 10 -42 8 -10 16 -34 27 -77 23 -94
175 -386 206 -398 5 -2 9 -8 9 -13 0 -11 65 -103 98 -138 27 -30 28 -41 2 -34
-11 3 -20 9 -20 14 0 5 -7 9 -15 9 -8 0 -15 5 -15 10 0 6 -9 10 -20 10 -11 0
-20 5 -20 10 0 6 -11 15 -25 20 -28 11 -88 51 -93 63 -2 4 -10 7 -17 7 -8 0
-29 14 -47 31 -18 16 -48 37 -65 46 -18 8 -33 19 -33 24 0 5 -7 9 -15 9 -8 0
-15 7 -15 15 0 8 -11 20 -25 27 -13 7 -59 45 -101 83 -42 39 -93 85 -112 103
-20 17 -40 32 -44 32 -4 0 -8 4 -8 9 0 5 -38 48 -85 95 -47 46 -85 87 -85 89
0 2 -21 26 -47 53 -74 77 -143 166 -143 183 0 5 -12 19 -27 31 -16 12 -28 26
-28 31 0 5 -15 28 -33 51 -29 37 -80 118 -116 183 -6 11 -21 35 -34 52 -12 18
-28 46 -33 63 -6 16 -15 30 -20 30 -5 0 -9 6 -9 14 0 7 -7 30 -15 50 -8 20
-15 39 -14 42 0 4 -3 10 -8 13 -15 11 -53 93 -47 102 3 5 1 9 -3 9 -5 0 -17
17 -26 39 -28 62 -85 229 -81 234 3 2 0 17 -7 33 -6 16 -13 38 -15 49 -2 11
-15 74 -29 140 -14 66 -28 131 -31 144 -3 13 -11 51 -19 85 -8 34 -15 67 -15
74 0 12 93 -57 111 -81 11 -15 61 -37 70 -31 22 13 2 42 -100 145 -60 60 -119
122 -130 137 -60 76 -111 148 -111 155 0 5 -6 23 -14 40 -28 63 -48 133 -53
182 -3 27 -9 57 -14 66 -10 19 -4 126 11 189 25 101 84 118 120 35 11 -25 17
-52 14 -60 -4 -8 -1 -15 5 -15 6 0 11 -8 11 -18 0 -61 120 -223 141 -190 5 7
6 25 3 40 -3 14 -1 29 5 32 8 5 64 164 66 186 0 11 80 105 109 130 17 14 37
32 45 40 9 8 34 24 56 35 22 11 53 30 68 42 19 15 42 23 67 23 21 0 41 3 43 8
4 6 81 9 111 4z m1843 -718 c-3 -3 -12 -4 -19 -1 -8 3 -5 6 6 6 11 1 17 -2 13
-5z m-740 -94 c81 -41 169 -70 210 -70 18 0 33 -2 33 -4 0 -16 -14 -36 -25
-36 -7 0 -22 -12 -34 -27 -15 -21 -23 -25 -34 -18 -66 47 -102 66 -136 71 -22
4 -45 12 -50 18 -9 11 -32 96 -27 96 2 0 30 -14 63 -30z m685 -57 c113 -95
174 -170 234 -285 43 -84 84 -188 84 -212 0 -6 -15 -27 -33 -47 -70 -79 -97
-111 -97 -115 0 -2 -31 -43 -70 -90 -38 -47 -70 -92 -70 -100 0 -8 -4 -14 -10
-14 -5 0 -12 -11 -16 -25 -3 -14 -9 -25 -13 -25 -3 0 -17 -23 -30 -50 -14 -28
-29 -50 -33 -50 -4 0 -8 -6 -8 -14 0 -7 -7 -19 -15 -26 -8 -7 -17 -28 -21 -47
-4 -19 -13 -37 -20 -40 -8 -3 -14 -11 -14 -18 0 -7 -7 -26 -15 -41 -8 -16 -15
-36 -15 -45 0 -9 -3 -19 -7 -23 -4 -3 -8 -16 -10 -28 -2 -12 -7 -26 -12 -32
-10 -12 -19 -57 -26 -121 -2 -22 -9 -56 -15 -75 -6 -19 -14 -109 -17 -200 -4
-131 -2 -180 12 -240 9 -41 17 -84 19 -95 7 -52 31 -135 52 -182 13 -28 24
-57 24 -62 0 -6 4 -11 8 -11 4 0 20 -27 36 -59 15 -33 37 -69 48 -81 21 -22
21 -23 2 -59 -10 -19 -48 -65 -84 -102 -80 -81 -170 -128 -259 -136 -55 -5
-64 -3 -98 23 -52 40 -223 211 -258 259 -17 22 -32 42 -35 45 -3 3 -21 30 -40
60 -19 30 -40 61 -47 68 -7 7 -13 19 -13 26 0 8 -17 47 -38 87 -41 80 -92 221
-95 260 -1 13 -7 30 -14 37 -7 7 -13 28 -14 45 0 18 -6 59 -13 92 -18 83 -13
423 7 515 9 40 20 79 33 113 8 21 12 42 9 47 -3 5 6 39 20 77 14 37 27 75 30
83 6 26 57 133 82 172 13 21 23 42 23 48 0 6 16 32 35 57 19 25 35 51 35 58 0
6 9 20 20 30 11 10 20 22 20 27 0 4 12 22 27 39 15 17 39 50 53 73 14 24 40
56 58 71 17 15 32 31 32 36 0 15 202 215 235 232 17 9 48 32 70 52 22 20 56
43 75 52 19 10 37 20 40 23 6 8 31 18 47 19 7 1 54 -34 105 -76z m1964 61 c7
2 15 2 18 -2 4 -3 14 -6 24 -7 71 -7 131 -22 259 -64 140 -47 418 -152 528
-201 46 -20 48 -23 28 -31 -34 -12 -30 -59 6 -98 16 -17 34 -31 39 -31 6 0 12
-3 14 -7 17 -40 415 -251 503 -268 11 -2 34 -7 50 -10 101 -19 134 -25 168
-30 20 -3 37 -9 37 -13 0 -4 -29 -25 -64 -45 -35 -21 -70 -44 -76 -52 -7 -8
-37 -29 -67 -46 -62 -36 -94 -67 -130 -126 -20 -36 -25 -55 -24 -114 0 -60 4
-73 23 -90 20 -17 34 -19 98 -15 43 2 90 12 110 22 28 15 66 18 205 21 438 7
513 13 730 57 107 22 156 35 205 55 25 10 61 22 80 26 19 4 57 18 83 31 27 13
53 24 58 24 5 0 32 11 61 25 28 14 60 25 69 25 33 0 183 51 283 97 128 58 292
160 381 237 39 34 82 70 95 81 14 12 56 53 94 93 65 69 68 71 62 40 -22 -105
-28 -192 -17 -250 25 -142 94 -226 341 -415 195 -149 219 -169 333 -281 132
-130 188 -200 297 -372 51 -80 105 -159 121 -177 15 -17 32 -39 37 -49 15 -27
52 -11 112 48 56 56 129 160 160 231 22 50 49 77 107 106 l43 21 -6 -37 c-3
-21 -10 -42 -15 -47 -5 -6 -9 -23 -9 -38 0 -16 -4 -36 -10 -46 -12 -21 -59
-147 -69 -187 -4 -16 -15 -44 -25 -62 -9 -18 -16 -36 -15 -40 1 -4 0 -11 -1
-15 -1 -5 -3 -11 -5 -15 -4 -15 -18 -48 -41 -100 -13 -28 -24 -57 -24 -63 0
-12 -40 -104 -66 -152 -8 -14 -14 -31 -14 -37 0 -19 -106 -224 -150 -291 -5
-8 -19 -33 -31 -55 -12 -22 -25 -42 -30 -45 -4 -3 -10 -18 -13 -33 -2 -14 -12
-37 -20 -49 -21 -29 -20 -42 2 -33 9 4 40 9 67 11 144 13 292 72 372 149 43
41 43 41 45 16 3 -52 -18 -116 -54 -166 -21 -28 -56 -65 -63 -65 -5 0 -23 -11
-41 -25 -18 -14 -37 -25 -41 -25 -5 0 -22 -12 -39 -28 -16 -15 -42 -34 -59
-42 -16 -8 -37 -20 -47 -28 -9 -7 -36 -16 -60 -18 -48 -6 -63 -13 -30 -15 12
-1 27 -3 32 -4 6 -1 15 -3 21 -4 6 0 9 -8 5 -16 -7 -20 27 -37 59 -29 26 6 26
6 13 -26 -13 -30 -18 -34 -63 -37 -27 -1 -77 -11 -110 -22 -33 -11 -87 -22
-120 -26 -33 -4 -84 -15 -112 -26 -29 -10 -53 -16 -53 -13 0 4 -6 2 -13 -4
-13 -11 -71 -26 -162 -42 -27 -5 -61 -12 -74 -16 -17 -5 -22 -4 -17 4 10 17
-8 15 -109 -14 -49 -14 -146 -38 -215 -54 -69 -16 -146 -36 -172 -44 -25 -8
-49 -12 -52 -9 -3 3 -11 1 -18 -4 -14 -11 -60 -25 -98 -29 -13 -2 -47 -11 -75
-20 -69 -22 -78 -24 -180 -40 -124 -19 -124 -19 -131 -27 -4 -4 -18 -7 -31 -7
-14 0 -33 -5 -44 -11 -12 -6 -42 -12 -67 -15 -26 -2 -67 -8 -92 -14 -50 -11
-110 -20 -155 -25 -16 -2 -65 -8 -108 -14 -43 -6 -81 -10 -85 -10 -4 1 -9 0
-12 -1 -6 -3 -39 -6 -155 -15 -49 -3 -112 -9 -140 -11 -27 -3 -97 -7 -155 -9
-132 -4 -249 -13 -261 -21 -5 -3 -14 -2 -21 2 -6 4 -144 8 -307 10 -163 1
-343 5 -401 8 -132 7 -276 17 -315 22 -16 2 -57 6 -90 9 -33 3 -71 8 -85 11
-14 4 -48 8 -75 9 -28 2 -69 8 -93 14 -24 7 -52 9 -62 6 -12 -4 -20 -2 -20 5
0 6 -4 9 -9 6 -4 -3 -51 3 -102 14 -52 10 -130 26 -174 35 -44 9 -89 18 -100
21 -11 2 -54 11 -95 19 -86 18 -142 33 -185 49 -16 6 -32 11 -35 11 -3 1 -14
4 -25 8 -11 3 -33 8 -48 11 -16 3 -34 9 -40 14 -7 5 -30 13 -52 17 -22 4 -44
10 -50 13 -5 4 -57 23 -115 43 -153 54 -275 103 -278 111 -2 5 -9 8 -15 8 -7
0 -48 18 -92 40 -44 22 -85 40 -92 40 -7 0 -16 6 -20 13 -7 11 -88 52 -103 52
-3 0 -18 10 -35 21 -16 12 -53 34 -82 48 -28 15 -63 39 -77 53 -14 14 -26 23
-26 19 0 -4 -13 2 -29 13 -16 12 -34 21 -40 21 -6 0 -11 5 -11 10 0 6 -5 10
-11 10 -6 0 -25 11 -43 25 -18 14 -36 25 -39 25 -6 0 -126 87 -137 100 -3 3
-25 21 -50 40 -25 19 -46 38 -48 42 -2 5 -7 8 -11 8 -4 0 -27 18 -50 40 -23
22 -54 48 -69 57 -39 25 -90 83 -117 134 -99 184 -151 307 -147 352 0 12 -3
26 -7 32 -5 5 -11 22 -13 38 -6 33 7 35 62 7 22 -11 45 -20 53 -20 7 0 40 -14
73 -31 264 -138 536 -118 589 42 19 59 15 200 -6 225 -6 8 -8 14 -5 14 4 0
-10 32 -30 70 -21 39 -41 70 -46 70 -4 0 -8 7 -8 15 0 15 -215 235 -230 235
-5 0 -20 10 -32 23 -31 29 -164 119 -200 134 -15 7 -43 24 -62 38 -40 30 -39
42 14 125 20 30 45 72 55 93 11 21 30 50 42 65 l21 27 34 -31 c18 -17 51 -44
73 -59 22 -16 45 -34 50 -39 11 -12 44 -32 90 -55 17 -8 32 -17 35 -21 8 -10
122 -62 170 -77 146 -45 277 -50 347 -14 24 11 47 35 62 61 21 38 23 51 18
124 -6 82 -21 140 -44 164 -7 7 -16 24 -19 38 -3 13 -10 24 -15 24 -5 0 -9 6
-9 14 0 22 -215 241 -272 277 -27 17 -63 35 -80 38 -37 8 -49 30 -20 38 11 3
23 11 26 18 3 8 20 22 38 31 18 9 37 23 41 30 4 8 13 14 19 14 6 0 28 16 49
35 22 19 45 35 52 35 8 0 22 9 32 20 19 21 45 27 45 9 0 -41 136 -152 275
-224 28 -14 57 -30 65 -35 33 -19 149 -38 226 -37 70 2 85 5 115 28 63 48 74
160 24 238 -27 44 -139 162 -152 162 -15 0 -102 64 -103 75 0 12 55 31 111 38
18 3 68 10 109 16 41 6 136 13 210 16 74 3 137 7 139 9 1 2 15 -1 29 -6 14 -5
31 -8 38 -5z m-2981 -144 c97 -71 171 -106 248 -117 53 -7 77 16 77 74 0 33 4
43 16 43 23 0 94 -53 94 -70 0 -8 -17 -33 -39 -55 -37 -38 -75 -83 -144 -170
-18 -21 -42 -50 -55 -63 -12 -12 -31 -41 -43 -63 -11 -22 -26 -42 -34 -45 -15
-6 -67 26 -96 58 -9 10 -21 18 -26 18 -17 0 -100 78 -136 128 -43 60 -80 171
-71 217 5 29 14 38 67 63 34 17 68 27 76 24 9 -3 39 -22 66 -42z m2307 8 c34
-18 72 -42 84 -53 12 -11 41 -36 64 -55 125 -101 136 -256 20 -261 -98 -5
-255 44 -365 114 -27 18 -57 37 -65 42 -26 15 -134 87 -140 92 -7 7 41 42 90
65 25 12 61 32 81 44 84 52 148 55 231 12z m1783 -198 l20 -9 -20 0 c-11 0
-27 4 -35 9 -13 9 -13 10 0 9 8 0 24 -4 35 -9z m-2515 -10 c0 -5 -5 -10 -11
-10 -5 0 -7 5 -4 10 3 6 8 10 11 10 2 0 4 -4 4 -10z m-40 -190 c0 -5 27 -24
61 -40 139 -71 341 -332 362 -467 2 -12 6 -25 9 -29 10 -9 -12 -66 -36 -92
-19 -21 -26 -23 -106 -18 -107 5 -273 52 -355 99 -56 32 -194 126 -213 144 -7
7 -22 19 -33 27 -19 13 -18 17 46 102 37 49 81 99 98 112 17 12 27 22 23 22
-5 0 0 8 10 18 11 9 33 35 49 57 44 60 85 91 85 65z m-1834 -414 c11 -2 59
-20 105 -39 46 -18 92 -37 101 -40 15 -5 16 -11 8 -33 -10 -24 -50 -199 -55
-234 -1 -8 -6 -42 -10 -75 -5 -33 -9 -98 -9 -145 -1 -51 -5 -84 -11 -82 -37
10 -75 27 -75 34 0 4 -7 8 -16 8 -21 0 -217 198 -235 238 -7 17 -17 32 -21 32
-5 0 -8 7 -8 15 0 8 -9 30 -19 49 -11 19 -18 36 -16 38 2 2 -2 29 -9 60 -11
50 -11 61 6 106 25 66 62 83 168 77 41 -2 84 -6 96 -9z m9525 -26 c15 0 30 -4
33 -9 3 -5 18 -12 33 -16 16 -3 44 -19 63 -33 19 -15 38 -26 43 -24 4 1 7 -3
7 -8 0 -5 7 -10 15 -10 8 0 20 -9 27 -20 7 -11 16 -20 21 -20 5 0 28 -17 52
-37 69 -58 95 -143 70 -233 -8 -30 -18 -70 -21 -87 -7 -35 -24 -36 -24 -2 0
28 -64 172 -99 223 -41 59 -83 101 -188 189 -64 54 -90 82 -86 93 4 11 9 12
16 5 6 -6 23 -11 38 -11z m-8111 -421 c61 -39 110 -75 110 -80 0 -5 7 -9 16
-9 8 0 43 -27 76 -60 34 -33 63 -60 65 -60 8 0 83 -73 83 -81 0 -4 14 -23 31
-41 55 -58 94 -153 96 -233 4 -169 -75 -213 -307 -171 -77 14 -119 29 -223 82
-70 35 -133 64 -141 64 -7 0 -25 9 -40 21 l-27 21 6 145 c3 80 8 149 11 155 3
5 8 25 10 44 2 20 9 45 15 56 6 11 8 22 5 25 -3 3 1 18 9 34 8 15 15 36 15 47
0 10 5 23 12 30 6 6 13 22 15 34 10 67 29 64 163 -23z m7714 -546 c31 -20 304
-18 367 2 38 13 19 -28 -44 -89 -91 -89 -210 -147 -329 -161 -50 -6 -58 -4
-86 20 -30 26 -32 30 -32 98 0 40 3 89 6 110 l7 38 51 -6 c28 -4 55 -9 60 -12z"/>
<path d="M6937 12118 c-76 -7 -188 -40 -217 -63 -8 -7 -31 -20 -50 -29 -52
-24 -101 -72 -94 -90 9 -24 28 -20 112 24 94 48 172 68 283 74 149 7 271 -26
349 -95 48 -42 149 -104 157 -95 8 7 -35 95 -63 129 -26 32 -76 67 -124 88
-14 5 -38 17 -53 24 -60 30 -190 44 -300 33z"/>
<path d="M6898 11635 c-2 -3 -28 -7 -56 -10 -83 -8 -255 -51 -304 -76 -10 -5
-24 -9 -31 -9 -35 0 -66 -78 -32 -81 8 -1 21 -2 28 -3 6 -1 17 1 22 5 6 5 51
13 100 19 49 6 91 13 94 15 23 14 221 22 290 11 37 -5 97 -31 106 -46 3 -5 12
-7 20 -4 7 3 18 -4 25 -15 6 -12 18 -21 26 -21 9 0 29 -13 46 -30 16 -16 34
-30 39 -30 11 0 121 -110 168 -167 31 -38 73 -63 106 -63 20 0 25 52 9 85 -8
17 -39 57 -69 90 -30 33 -55 65 -55 71 0 6 -18 23 -40 38 -22 14 -40 31 -40
38 0 6 -2 9 -5 6 -3 -3 -16 3 -28 13 -68 58 -87 71 -135 94 -29 14 -59 25 -67
25 -8 0 -15 4 -15 9 0 10 -59 22 -123 26 -21 1 -40 5 -44 9 -8 7 -28 8 -35 1z"/>
<path d="M9720 11145 c-7 -8 -8 -15 -2 -15 5 0 15 7 22 15 7 8 8 15 2 15 -5 0
-15 -7 -22 -15z"/>
<path d="M6279 8093 c-13 -16 -12 -17 4 -4 9 7 17 15 17 17 0 8 -8 3 -21 -13z"/>
<path d="M6636 7877 c3 -10 9 -15 12 -12 3 3 0 11 -7 18 -10 9 -11 8 -5 -6z"/>
<path d="M7424 7024 c3 -9 6 -18 6 -20 0 -7 36 -5 43 3 4 3 -5 12 -19 20 -34
17 -37 16 -30 -3z"/>
<path d="M7266 6417 c3 -10 9 -15 12 -12 3 3 0 11 -7 18 -10 9 -11 8 -5 -6z"/>
</g>
</svg>
