<?xml version="1.0" standalone="no"?>
<!DOCTYPE svg PUBLIC "-//W3C//DTD SVG 20010904//EN"
 "http://www.w3.org/TR/2001/REC-SVG-20010904/DTD/svg10.dtd">
<svg version="1.0" xmlns="http://www.w3.org/2000/svg"
 width="200.000000pt" height="200.000000pt" viewBox="0 0 200.000000 200.000000"
 preserveAspectRatio="xMidYMid meet">

<g transform="translate(0.000000,200.000000) scale(0.100000,-0.100000)"
fill="#000000" stroke="none">
<path d="M1 1573 c1 -384 2 -421 14 -363 39 187 133 359 275 501 138 138 319
237 500 274 58 12 19 13 -362 14 l-428 1 1 -427z"/>
<path d="M1210 1985 c381 -78 697 -394 775 -775 12 -58 13 -21 14 363 l1 427
-427 -1 c-384 -1 -421 -2 -363 -14z"/>
<path d="M920 1431 c-19 -10 -45 -36 -58 -57 -22 -38 -22 -45 -20 -284 3 -238
4 -246 26 -278 68 -94 210 -84 262 19 18 35 20 59 20 277 0 183 3 250 15 288
8 27 15 50 15 52 0 1 -51 2 -113 2 -90 0 -119 -4 -147 -19z m127 -127 c15 -24
15 -29 2 -53 -10 -19 -24 -27 -49 -29 -39 -4 -60 16 -60 58 0 35 17 50 57 50
24 0 37 -7 50 -26z m0 -180 c15 -24 15 -29 2 -53 -10 -19 -24 -27 -49 -29 -39
-4 -60 16 -60 58 0 35 17 50 57 50 24 0 37 -7 50 -26z m2 -186 c13 -23 13 -29
-2 -52 -22 -34 -80 -37 -97 -6 -41 76 57 132 99 58z"/>
<path d="M375 1331 c-16 -10 -41 -31 -55 -45 l-25 -28 -3 -252 c-3 -248 -3
-252 20 -285 46 -67 67 -76 199 -79 65 -2 119 -1 119 2 0 2 -5 17 -12 33 -8
19 -14 119 -18 299 l-5 271 -29 37 c-48 64 -131 84 -191 47z m110 -105 c25
-18 25 -74 0 -92 -42 -31 -95 -6 -95 43 0 53 53 80 95 49z m0 -180 c25 -18 25
-74 0 -92 -42 -31 -95 -6 -95 43 0 53 53 80 95 49z m0 -180 c25 -18 25 -74 0
-92 -42 -31 -95 -6 -95 43 0 53 53 80 95 49z"/>
<path d="M1490 1339 c-29 -12 -67 -45 -83 -74 -8 -13 -14 -112 -17 -290 -4
-236 -7 -274 -23 -303 l-18 -34 125 4 c138 3 158 11 204 78 21 32 22 40 22
275 0 235 -1 243 -23 276 -46 69 -119 95 -187 68z m92 -116 c38 -34 13 -103
-38 -103 -29 0 -64 33 -64 60 0 26 34 60 62 60 12 0 30 -7 40 -17z m0 -180
c22 -20 23 -61 1 -85 -37 -41 -111 -3 -98 50 12 50 61 68 97 35z m0 -180 c37
-33 11 -103 -39 -103 -28 0 -63 33 -63 60 0 26 34 60 62 60 12 0 30 -7 40 -17z"/>
<path d="M1 428 l-1 -428 428 1 c381 1 420 2 362 14 -376 76 -699 399 -775
775 -12 58 -13 19 -14 -362z"/>
<path d="M1986 799 c-4 -28 -22 -94 -41 -146 -117 -328 -429 -588 -775 -646
-14 -2 167 -5 403 -6 l427 -1 0 425 c0 234 -2 425 -4 425 -2 0 -6 -23 -10 -51z"/>
</g>
</svg>
